<svg width="512" height="512" viewBox="0 0 512 512" fill="none" xmlns="http://www.w3.org/2000/svg">
<g clip-path="url(#clip0_1_2604)">
<path d="M425.89 320.19C422.14 323.49 418.41 326.81 414.7 330.14C442.96 353.29 468.66 378.99 491.8 407.24C495.13 403.53 498.45 399.81 501.75 396.05C512.27 383.86 515.93 359.51 506.78 345.71C498.5 333.58 488.35 323.43 476.23 315.16C462.42 306.01 438.08 309.67 425.88 320.19H425.89Z" fill="#F287B7"/>
<path d="M323.25 511.95C342.98 510.55 364.53 508.49 386.03 507.02C390.22 506.73 394.04 505.27 396.64 502.91C424.4 477.73 450.85 451.62 476.3 424.22C451.88 396.26 425.69 370.07 397.72 345.64C370.32 371.09 344.21 397.54 319.03 425.3C316.68 427.9 315.21 431.71 314.92 435.91C313.45 457.41 311.38 478.96 309.99 498.69C309.36 506.76 315.17 512.57 323.24 511.94L323.25 511.95Z" fill="#F287B7"/>
<path d="M313.355 227.845C340.057 225.215 359.571 201.437 356.941 174.736C354.311 148.035 330.533 128.521 303.832 131.151C277.13 133.781 257.617 157.558 260.247 184.26C262.876 210.961 286.654 230.475 313.355 227.845Z" fill="#F287B7"/>
<path d="M9.02 350.66C18.25 402.93 64.63 449.3 116.9 458.54L117.09 458.57C153.16 464.57 191.32 467.51 233.81 467.55C251.39 467.53 268.24 467.01 284.51 465.98C285.38 455.47 286.27 444.66 287 433.97C287.73 423.48 291.74 413.72 298.3 406.5C323.92 378.25 350.96 350.87 378.67 325.13L378.76 325.05L378.85 324.97L395.83 309.46L395.91 309.38L396 309.3C398.19 307.33 400.28 305.46 402.33 303.65C396.78 295.74 391.21 287.82 385.6 279.86C366.26 252.6 329.74 251.76 312.34 278.93C310.33 282.05 308.32 285.17 306.29 288.29C294.65 306.2 269.91 306.15 257.84 288.04C235.65 254.79 213.75 221.51 193.19 188.47C176.2 161.11 141.66 161.85 122.55 189.55C95.77 228.55 68.17 267.35 41.38 305.52C39.15 282.94 38.04 259.2 38.01 233.8C38.06 193.49 40.82 157.38 46.46 123.42C49.6 105.8 59.27 88.15 73.71 73.71C88.15 59.27 105.8 49.59 123.43 46.45C157.39 40.81 193.49 38.04 233.77 38C274.07 38.04 310.18 40.81 344.15 46.45C361.77 49.59 379.42 59.26 393.86 73.7C408.3 88.14 417.98 105.79 421.11 123.41C426.75 157.38 429.52 193.49 429.56 233.75C429.54 252.42 428.93 270.18 427.72 287.24C436.68 283.82 446.56 281.94 456.44 281.94C459.74 281.94 462.97 282.15 466.11 282.56C467.06 266.88 467.54 250.66 467.56 233.75C467.51 191.31 464.57 153.14 458.58 117.08L458.55 116.89C449.31 64.62 402.94 18.24 350.67 9.01L350.48 8.98C314.4 2.98 276.24 0.05 233.76 0C191.3 0.05 153.14 2.99 117.09 8.98L116.9 9.01C64.63 18.25 18.25 64.63 9.02 116.9L8.99 117.09C2.99 153.14 0.05 191.31 0 233.8C0.05 276.27 2.99 314.44 8.98 350.48L9.01 350.67L9.02 350.66Z" fill="#F287B7"/>
</g>
<defs>
<clipPath id="clip0_1_2604">
<rect width="512" height="512" fill="white"/>
</clipPath>
</defs>
</svg>
