<svg width="468" height="468" viewBox="0 0 468 468" fill="none" xmlns="http://www.w3.org/2000/svg">
<path d="M315.095 218.641C357.688 214.662 388.816 178.69 384.621 138.296C380.426 97.9019 342.496 68.3806 299.904 72.3593C257.31 76.338 226.184 112.309 230.379 152.704C234.573 193.098 272.502 222.619 315.095 218.641Z" fill="#F287B7"/>
<path d="M9.02 350.66C18.25 402.93 64.63 449.3 116.9 458.54L117.09 458.57C153.16 464.57 191.32 467.51 233.81 467.55C251.39 467.53 268.23 468.58 284.5 467.55C298.29 467.55 285 467.5 298.5 467.55C312.5 467.55 344 467.55 352 467.55C385.5 467.55 386 467.55 414.5 467.55H429.5L436.5 326V316.5L415 313.44H414C415 312.864 403.5 305.318 402.33 303.65C396.78 295.74 391.21 287.82 385.6 279.86C366.26 252.6 329.74 251.76 312.34 278.93C310.33 282.05 308.32 285.17 306.29 288.29C294.65 306.2 269.91 306.15 257.84 288.04C235.65 254.79 213.75 221.51 193.19 188.47C176.2 161.11 141.66 161.85 122.55 189.55C95.77 228.55 68.17 267.35 41.38 305.52C39.15 282.94 38.04 259.2 38.01 233.8C38.06 193.49 40.82 157.38 46.46 123.42C49.6 105.8 59.27 88.15 73.71 73.71C88.15 59.27 105.8 49.59 123.43 46.45C157.39 40.81 193.49 38.04 233.77 38C274.07 38.04 310.18 40.81 344.15 46.45C361.77 49.59 379.42 59.26 393.86 73.7C408.3 88.14 417.98 105.79 421.11 123.41C426.75 157.38 429.52 193.49 429.56 233.75C429.54 252.42 430.71 450.49 429.5 467.55C436.44 467.55 430.12 467.55 440 467.55C440 467.55 459 464.93 459 458.5C459.95 442.82 467.54 250.66 467.56 233.75C467.51 191.31 464.57 153.14 458.58 117.08L458.55 116.89C449.31 64.62 402.94 18.24 350.67 9.01L350.48 8.98C314.4 2.98 276.24 0.05 233.76 0C191.3 0.05 153.14 2.99 117.09 8.98L116.9 9.01C64.63 18.25 18.25 64.63 9.02 116.9L8.99 117.09C2.99 153.14 0.05 191.31 0 233.8C0.05 276.27 2.99 314.44 8.98 350.48L9.01 350.67L9.02 350.66Z" fill="#F287B7"/>
</svg>
