<svg width="469" height="468" viewBox="0 0 469 468" fill="none" xmlns="http://www.w3.org/2000/svg">
<path d="M315.095 218.641C357.688 214.662 388.816 178.69 384.621 138.296C380.426 97.9019 342.496 68.3806 299.904 72.3593C257.31 76.338 226.184 112.309 230.379 152.704C234.573 193.098 272.502 222.619 315.095 218.641Z" fill="#E81A1A"/>
<path d="M9.95945 350.611C19.1895 402.881 65.5695 449.251 117.839 458.491L118.029 458.521C154.099 464.521 192.259 467.461 234.749 467.501C252.329 467.481 269.169 468.531 285.439 467.501C299.229 467.501 285.939 467.451 299.439 467.501C313.439 467.501 344.939 467.501 352.939 467.501C386.439 467.501 386.939 467.501 415.439 467.501H430.439L437.439 325.951V316.451L418 314.5L415 313.5C410 311.5 404.439 305.269 403.269 303.601C397.719 295.691 392.149 287.771 386.539 279.811C367.199 252.551 330.679 251.711 313.279 278.881C311.269 282.001 309.259 285.121 307.229 288.241C295.589 306.151 270.849 306.101 258.779 287.991C236.589 254.741 214.689 221.461 194.129 188.421C177.139 161.061 142.599 161.801 123.489 189.501C96.7095 228.501 69.1095 267.301 42.3195 305.471C40.0895 282.891 38.9795 259.151 38.9495 233.751C38.9995 193.441 41.7595 157.331 47.3995 123.371C50.5395 105.751 60.2095 88.1012 74.6495 73.6612C89.0895 59.2212 106.739 49.5412 124.369 46.4012C158.329 40.7612 194.429 37.9912 234.709 37.9512C275.009 37.9912 311.119 40.7612 345.089 46.4012C362.709 49.5412 380.359 59.2112 394.799 73.6512C409.239 88.0912 418.919 105.741 422.049 123.361C427.689 157.331 430.459 193.441 430.499 233.701C430.479 252.371 431.649 450.441 430.439 467.501C437.379 467.501 431.059 467.501 440.939 467.501C440.939 467.501 459.939 464.881 459.939 458.451C460.889 442.771 468.479 250.611 468.499 233.701C468.449 191.261 465.509 153.091 459.519 117.031L459.489 116.841C450.249 64.5712 403.879 18.1912 351.609 8.96117L351.419 8.93117C315.339 2.93117 277.179 0.00117188 234.699 -0.0488281C192.239 0.00117188 154.079 2.94117 118.029 8.93117L117.839 8.96117C65.5695 18.2012 19.1895 64.5812 9.95945 116.851L9.92945 117.041C3.92945 153.091 0.989453 191.261 0.939453 233.751C0.989453 276.221 3.92945 314.391 9.91945 350.431L9.94945 350.621L9.95945 350.611Z" fill="#E81A1A"/>
</svg>
