<svg width="59" height="59" viewBox="0 0 59 59" fill="none" xmlns="http://www.w3.org/2000/svg">
<circle cx="29.4487" cy="29.4487" r="28.4487" fill="#1A73E8" stroke="white" stroke-width="2"/>
<path fill-rule="evenodd" clip-rule="evenodd" d="M47.7565 41.1321C46.5906 41.5357 44.288 42.3724 41.6404 37.8936C38.9928 33.4193 35.4928 34.459 35.4928 34.459C35.2966 34.4928 35.1297 34.5582 34.9561 34.6168C31.005 28.9902 19.8937 16.7355 18.9149 15.7545C17.5099 14.3517 15.151 13.0347 13.1777 15.1027C11.3217 17.0467 12.2734 19.5838 13.6784 20.9888C14.6662 21.9765 26.9885 33.1442 32.6129 37.0818C32.4957 37.4223 32.4415 37.7019 32.4415 37.8418C32.4415 46.0642 40.8511 45.6289 42.5899 45.3109C45.6907 44.7494 48.9224 40.7329 47.7565 41.1321Z" fill="white"/>
<path fill-rule="evenodd" clip-rule="evenodd" d="M24.7084 35.919L24.1964 37.6149L25.2925 38.7109L16.6979 42.4455L15.0066 40.8241L18.8877 32.6445L18.8471 34.2367L21.0978 34.2051L23.0215 32.2995C21.8262 31.2846 20.6355 30.2563 19.4989 29.2617L17.6181 31.1448C17.6181 31.1448 12.4041 43.1424 12.05 44.1121C11.7681 44.8789 12.7401 45.8509 13.4121 45.5216C14.4946 44.9871 26.3569 39.8385 26.3569 39.8385L28.991 37.1955C28.0348 36.4535 26.9951 35.6146 25.9217 34.7283L24.7084 35.919Z" fill="white"/>
<path fill-rule="evenodd" clip-rule="evenodd" d="M39.4441 16.0503L42.2833 18.8378L32.7439 28.0998C33.5964 29.1372 34.3992 30.134 35.1141 31.0563L44.7234 21.4154C45.8555 20.2833 45.9187 18.6506 44.7054 17.4395L40.1838 12.9517C38.9682 11.7407 37.0648 11.6775 35.935 12.8074L27.1826 21.5755C28.1884 22.7257 29.2326 23.9322 30.2587 25.141L39.4441 16.0503Z" fill="white"/>
</svg>
