<svg width="800" height="514" viewBox="0 0 800 514" fill="none" xmlns="http://www.w3.org/2000/svg">
<path d="M782.876 513.501C776.008 513.501 769.711 509.572 767.012 503.125C765.032 498.446 715.55 387.455 530.544 365.473C492.008 360.795 445.854 358.395 389.804 357.976V496.317C389.804 502.705 386.355 508.493 380.687 511.552C375.049 514.491 368.301 514.071 363.053 510.562L7.61733 271.306C2.81901 268.097 0 262.699 0 257.031C0 251.303 2.81901 246.085 7.61733 242.726L363.203 3.4396C368.451 -0.189125 375.139 -0.429035 380.837 2.56992C386.535 5.62884 389.924 11.4168 389.924 17.6246V146.37C467.236 156.446 800 216.245 800 496.467C800 504.594 794.272 511.702 786.235 513.321C785.125 513.501 783.956 513.501 782.876 513.501Z" fill="#F287B7"/>
</svg>
