<svg width="12" height="12" viewBox="0 0 12 12" fill="none" xmlns="http://www.w3.org/2000/svg">
<path d="M6.00033 10.667C3.423 10.667 1.33366 8.57767 1.33366 6.00033H0.166992C0.166992 9.22196 2.77866 11.8337 6.00033 11.8337V10.667ZM6.00033 1.33366C8.57767 1.33366 10.667 3.423 10.667 6.00033H11.8337C11.8337 2.77866 9.22196 0.166992 6.00033 0.166992V1.33366ZM1.33366 6.00033C1.33366 4.7115 1.85536 3.54564 2.7005 2.7005L1.87553 1.87553C0.820547 2.93052 0.166992 4.38966 0.166992 6.00033H1.33366ZM2.7005 2.7005C3.54564 1.85536 4.7115 1.33366 6.00033 1.33366V0.166992C4.38966 0.166992 2.93052 0.820547 1.87553 1.87553L2.7005 2.7005ZM1.87553 2.7005L9.30018 10.1251L10.1251 9.30018L2.7005 1.87553L1.87553 2.7005ZM10.667 6.00033C10.667 7.28914 10.1453 8.45499 9.30018 9.30018L10.1251 10.1251C11.1801 9.07012 11.8337 7.61097 11.8337 6.00033H10.667ZM9.30018 9.30018C8.45499 10.1453 7.28914 10.667 6.00033 10.667V11.8337C7.61097 11.8337 9.07012 11.1801 10.1251 10.1251L9.30018 9.30018Z" fill="#E81A1A"/>
</svg>
