<svg width="54" height="20" viewBox="0 0 54 20" fill="none" xmlns="http://www.w3.org/2000/svg">
<g filter="url(#filter0_d_50_1576)">
<path d="M-55.8648 4.13183C-57.0592 4.13183 -58.0678 5.47109 -58.4059 7.3172C-58.4854 7.74311 -58.526 8.20783 -58.526 8.6726C-58.526 9.92926 -58.2282 11.0515 -57.7492 11.8855C-57.268 12.7049 -56.6032 13.2102 -55.8657 13.2102L13.3508 12.0086L26.019 11.79L26.0427 11.79L26.612 11.7754C26.8606 11.7754 27.1006 11.7608 27.3331 11.7058C27.39 11.7058 27.445 11.6912 27.4934 11.6783C27.502 11.6248 27.502 11.5552 27.502 11.5017L27.502 5.84029C27.502 5.77066 27.502 5.71724 27.4858 5.6476C27.4375 5.63465 27.389 5.62166 27.3331 5.62166C27.1092 5.5666 26.8606 5.55202 26.612 5.55202L26.4516 5.55202L26.0427 5.53745L26.019 5.53745L13.3508 5.31723L-55.8648 4.13183Z" fill="#9D6C4E"/>
<path d="M36.9619 2.77148C32.8572 2.77148 29.2947 4.06214 27.5439 5.94791C27.5264 5.96879 27.5087 5.99099 27.4911 6.00143C27.4475 6.05755 27.403 6.1006 27.3594 6.15672C26.9925 6.58607 26.7292 7.04935 26.5717 7.52309C26.4401 7.87542 26.3789 8.23955 26.3789 8.61409C26.3789 8.72368 26.3882 8.83331 26.3965 8.94554C26.4224 9.19744 26.4753 9.4519 26.5717 9.70509C26.7282 10.1788 26.9915 10.6304 27.3594 11.061C27.403 11.1145 27.4475 11.1706 27.5004 11.2137C29.2418 13.1321 32.8313 14.4436 36.9619 14.4436C42.8101 14.4436 53.1816 8.61409 53.1816 8.61409C53.1816 8.61409 53.1723 8.60234 53.1557 8.59058C52.5338 8.24997 42.6256 2.77148 36.9619 2.77148Z" fill="#07008C"/>
<path d="M26.5074 4.59766C26.4442 4.59766 26.3796 4.6105 26.3163 4.6105L26.3163 4.62334C25.9418 4.72132 25.6432 5.10041 25.5572 5.56139C25.5356 5.65616 25.5255 5.76378 25.5255 5.86016L25.5255 11.4754C25.5255 11.5702 25.5369 11.665 25.5572 11.7597C25.6533 12.3171 26.038 12.7235 26.5074 12.7235C26.9465 12.7235 27.321 12.3701 27.4488 11.869C27.4703 11.8015 27.4804 11.734 27.4906 11.6521C27.502 11.5991 27.502 11.53 27.502 11.477L27.502 5.86172C27.502 5.79266 27.502 5.73968 27.4804 5.67222C27.4691 5.60315 27.4577 5.52282 27.4374 5.45375C27.3096 4.96225 26.9351 4.59766 26.5074 4.59766Z" fill="#E1E1E1"/>
<path d="M26.7282 5.30982C26.6764 5.30982 26.6235 5.32027 26.5717 5.32027L26.5717 5.33072C26.4846 5.58546 26.4224 5.83892 26.3965 6.10412C26.3882 6.21386 26.3789 6.32621 26.3789 6.43595C26.3789 6.81089 26.4401 7.17405 26.5717 7.52811C26.721 8.00234 26.9915 8.45436 27.3501 8.88415C27.3947 8.94031 27.4476 8.99521 27.4994 9.05007C27.5077 9.07359 27.5254 9.08275 27.543 9.10493C29.2937 10.9914 32.8565 12.2821 36.9613 12.2821C42.8097 12.2821 53.1816 8.62028 53.1816 8.62028C53.1816 8.62028 53.1723 8.60852 53.1557 8.59676C52.5338 8.25446 42.6252 2.77148 36.9613 2.77148C32.8565 2.77148 29.2937 4.06351 27.543 5.95127C27.5254 5.97217 27.5077 5.99436 27.4901 6.00481C27.3854 5.60636 27.0786 5.30982 26.7282 5.30982Z" fill="#2622A5"/>
<path d="M26.5074 4.59766C26.4442 4.59766 26.3796 4.6105 26.3163 4.6105L26.3163 4.62334C25.9418 4.72132 25.6432 5.10041 25.5572 5.56139L25.5255 5.56139L25.5255 8.80274C25.5255 8.8991 25.5369 8.99222 25.5572 9.07574C25.6419 9.56407 25.9304 9.92867 26.3163 10.0106C26.3809 10.025 26.4454 10.0395 26.5074 10.0395C26.9465 10.0395 27.321 9.69895 27.4488 9.19782C27.4703 9.1175 27.4804 9.04846 27.4906 8.96654C27.502 8.92638 27.502 8.85894 27.502 8.80274L27.502 5.3863C27.4805 5.412 27.4589 5.43928 27.4374 5.45213C27.3096 4.96224 26.9351 4.59766 26.5074 4.59766Z" fill="white"/>
<path d="M25.5581 5.56432C25.6429 5.10495 25.9428 4.72427 26.3173 4.62951L26.3173 4.61505C26.3818 4.61505 26.4464 4.60059 26.5084 4.60059C26.9361 4.60059 27.3106 4.96682 27.4384 5.45511C27.4599 5.44226 27.4814 5.41497 27.5029 5.38766L27.5029 8.80565C27.5029 8.86029 27.5029 8.92773 27.4915 8.96949C27.4169 8.98393 27.3422 8.99677 27.2663 8.99677C26.9677 9.06425 26.6476 9.07713 26.316 9.07713L25.5252 9.07713L25.5252 5.56432L25.5581 5.56432Z" fill="white"/>
<path d="M15.5801 5.33723L15.5801 9.51356L-55.8832 10.793C-56.6443 10.793 -57.3321 10.2459 -57.8278 9.39972C-58.1412 8.84075 -58.3734 8.18144 -58.5054 7.43386C-58.1579 5.49691 -57.1157 4.09179 -55.8823 4.09179L15.5801 5.33723Z" fill="#AD7C5E"/>
<path d="M25.5244 11.7947L15.4726 12.0154L15.4726 9.2611L25.5244 9.03711L25.5244 11.7947Z" fill="#E1E1E1"/>
<path d="M25.5244 5.53934L25.5244 9.18305L15.4726 9.40963L15.4726 5.31445L25.5244 5.53934Z" fill="white"/>
</g>
<defs>
<filter id="filter0_d_50_1576" x="-64.1107" y="0.537752" width="119.154" height="19.1177" filterUnits="userSpaceOnUse" color-interpolation-filters="sRGB">
<feFlood flood-opacity="0" result="BackgroundImageFix"/>
<feColorMatrix in="SourceAlpha" type="matrix" values="0 0 0 0 0 0 0 0 0 0 0 0 0 0 0 0 0 0 127 0" result="hardAlpha"/>
<feOffset dx="-1.86144" dy="1.48916"/>
<feGaussianBlur stdDeviation="1.86144"/>
<feComposite in2="hardAlpha" operator="out"/>
<feColorMatrix type="matrix" values="0 0 0 0 0 0 0 0 0 0 0 0 0 0 0 0 0 0 0.25 0"/>
<feBlend mode="normal" in2="BackgroundImageFix" result="effect1_dropShadow_50_1576"/>
<feBlend mode="normal" in="SourceGraphic" in2="effect1_dropShadow_50_1576" result="shape"/>
</filter>
</defs>
</svg>
