<svg width="11" height="11" viewBox="0 0 11 11" fill="none" xmlns="http://www.w3.org/2000/svg">
<path d="M0.414587 11H7.1033L6.36012 10.2547H1.52937L3.01577 9.50944L1.52937 8.0189L0.786198 9.69576C0.786198 9.69576 -0.700199 11 0.414587 11ZM4.13053 9.13681L1.90096 6.90099V7.64627L3.38736 9.13681H4.13053ZM2.36546 6.80784L4.22344 8.67103C4.59503 9.04366 5.61693 8.0189 5.61693 8.0189L3.01574 5.41045C1.90096 6.52836 2.36546 6.80784 2.36546 6.80784ZM5.98851 7.64627L10.4612 2.54062C10.7747 2.18277 10.7973 1.6488 10.4727 1.30097C10.1853 0.992962 9.87447 0.707213 9.54308 0.446575C9.18659 0.166196 8.68354 0.212672 8.34827 0.518119L3.38736 5.03782L5.98851 7.64627Z" fill="#1A73E8"/>
</svg>
