<svg width="18" height="14" viewBox="0 0 18 14" fill="none" xmlns="http://www.w3.org/2000/svg">
<path fill-rule="evenodd" clip-rule="evenodd" d="M8.99906 4C7.34219 4 5.99902 5.34316 5.99902 7.00004C5.99902 8.65694 7.34219 10.0001 8.99906 10.0001C10.656 10.0001 11.9991 8.65694 11.9991 7.00004C11.9991 5.34316 10.656 4 8.99906 4ZM7.19904 7.00004C7.19904 6.00595 8.00497 5.20002 8.99906 5.20002C9.99316 5.20002 10.7991 6.00595 10.7991 7.00004C10.7991 7.99413 9.99316 8.80006 8.99906 8.80006C8.00497 8.80006 7.19904 7.99413 7.19904 7.00004Z" fill="#F287B7"/>
<path fill-rule="evenodd" clip-rule="evenodd" d="M8.99953 0C5.38818 0 2.95568 2.16339 1.54388 3.99754L1.51842 4.03061C1.19914 4.44528 0.905069 4.8272 0.70557 5.27879C0.491927 5.7624 0.399414 6.28944 0.399414 7.00009C0.399414 7.71074 0.491927 8.23779 0.70557 8.72139C0.905069 9.173 1.19914 9.55492 1.51843 9.96957L1.54388 10.0026C2.95568 11.8368 5.38818 14.0002 8.99953 14.0002C12.6109 14.0002 15.0434 11.8368 16.4551 10.0026L16.4806 9.96957C16.7999 9.55492 17.094 9.173 17.2935 8.72139C17.5072 8.23779 17.5996 7.71074 17.5996 7.00009C17.5996 6.28944 17.5072 5.7624 17.2935 5.27879C17.094 4.82719 16.7999 4.44527 16.4806 4.0306L16.4551 3.99754C15.0434 2.16339 12.6109 0 8.99953 0ZM2.49482 4.7295C3.79837 3.03598 5.91977 1.20002 8.99953 1.20002C12.0792 1.20002 14.2007 3.03598 15.5043 4.7295C15.8551 5.18534 16.0607 5.45775 16.1958 5.76368C16.3222 6.04968 16.3996 6.3992 16.3996 7.00009C16.3996 7.60098 16.3222 7.9505 16.1958 8.23651C16.0607 8.54243 15.8551 8.81483 15.5043 9.27068C14.2007 10.9642 12.0792 12.8002 8.99953 12.8002C5.91977 12.8002 3.79837 10.9642 2.49482 9.27068C2.14395 8.81483 1.93843 8.54243 1.80324 8.23651C1.6769 7.9505 1.59943 7.60098 1.59943 7.00009C1.59943 6.3992 1.6769 6.04968 1.80324 5.76368C1.93843 5.45775 2.14394 5.18534 2.49482 4.7295Z" fill="#F287B7"/>
</svg>
