<svg width="18" height="15" viewBox="0 0 18 15" fill="none" xmlns="http://www.w3.org/2000/svg">
<path fill-rule="evenodd" clip-rule="evenodd" d="M2.27618 0.3125L1.16406 1.32167L15.4751 14.3125L16.5873 13.303L2.27618 0.3125Z" fill="#F287B7"/>
<path d="M3.51336 3.45455L4.56013 4.40472C3.41425 5.29036 2.50179 6.39275 1.91215 7.35727L1.91036 7.36053C3.5525 9.85282 6.15811 12.2082 9.44671 11.851C10.3344 11.7545 11.1625 11.479 11.9191 11.085L12.9788 12.0465C11.504 12.9058 9.81335 13.3608 7.9816 13.1359C4.67863 12.7304 1.97787 10.2714 0.275391 7.38335C1.07474 5.92337 2.16819 4.52663 3.51336 3.45455ZM5.89417 2.0464C6.81777 1.67285 7.81713 1.45315 8.88437 1.4375C8.94362 1.43718 9.64709 1.46749 9.96597 1.51508C10.166 1.54507 10.3653 1.58256 10.5617 1.62917C13.6948 2.37008 16.016 4.90637 17.4754 7.38335C16.8631 8.50563 16.0613 9.46884 15.105 10.4073L14.0898 9.48579C14.7962 8.79476 15.3905 8.12947 15.844 7.38335C15.844 7.38335 15.3826 6.61375 15.0368 6.19587C14.8145 5.92728 14.5807 5.66651 14.3351 5.4152C14.1412 5.21701 13.3882 4.54391 13.209 4.40374C12.0067 3.4653 10.5951 2.72896 8.90196 2.74134C8.24625 2.7508 7.61568 2.86814 7.01707 3.06568L5.89417 2.0464Z" fill="#F287B7"/>
<path fill-rule="evenodd" clip-rule="evenodd" d="M6.36237 6.04054L7.22384 6.82219C7.16747 6.97768 7.13658 7.14392 7.13658 7.31635C7.13658 8.18732 7.91546 8.89432 8.87497 8.89432C9.06493 8.89432 9.24807 8.86662 9.41936 8.81512L10.2808 9.5971C9.865 9.80897 9.38525 9.92958 8.87497 9.92958C7.28597 9.92958 5.99609 8.75873 5.99609 7.31635C5.99609 6.85316 6.12932 6.418 6.36237 6.04054ZM8.82182 4.70378C8.83942 4.70345 8.85737 4.70312 8.87497 4.70312C10.464 4.70312 11.7538 5.8743 11.7538 7.31635C11.7538 7.33265 11.7538 7.34862 11.7535 7.36459L8.82182 4.70378Z" fill="#F287B7"/>
</svg>
