<svg width="54" height="28" viewBox="0 0 54 28" fill="none" xmlns="http://www.w3.org/2000/svg">
<g filter="url(#filter0_d_50_1567)">
<path d="M23.0198 13.0481C23.0198 10.8431 24.8073 9.05566 27.0122 9.05566L49.3173 9.05566C51.4515 9.05566 53.1816 10.7858 53.1816 12.92C53.1816 15.1957 51.3368 17.0405 49.061 17.0405L27.0122 17.0405C24.8073 17.0405 23.0198 15.2531 23.0198 13.0481Z" fill="#07008C"/>
<path d="M23.0585 11.7781C23.0585 10.4649 24.123 9.40039 25.4362 9.40039L50.1537 9.40039C51.4247 9.40039 52.4551 10.4307 52.4551 11.7018C52.4551 13.0571 51.3564 14.1557 50.0011 14.1557L25.4362 14.1557C24.123 14.1557 23.0585 13.0912 23.0585 11.7781Z" fill="#2622A5"/>
<path d="M47.1289 8.93797L47.1289 17.1517L43.2382 17.1517L32.4306 22.7716L32.4306 2.88574L43.2382 8.93797L47.1289 8.93797Z" fill="white"/>
<path d="M32.4307 2.88574L32.4307 18.4486L-56.6236 18.4486L-56.6236 8.07337C-56.6236 5.20832 -54.3009 2.88574 -51.436 2.88574L32.4307 2.88574Z" fill="#505050"/>
<path d="M32.4307 18.4492L32.4307 22.7722L-52.3006 22.7722C-54.6882 22.7722 -56.6236 20.8367 -56.6236 18.4492L32.4307 18.4492Z" fill="#404040"/>
<path d="M44.5352 17.1522L44.5352 8.93848L43.2382 8.93848L43.2382 17.1522L44.5352 17.1522Z" fill="#2622A5"/>
<path d="M43.2383 14.126L43.2383 17.1521L32.4307 22.772L32.4307 14.126L43.2383 14.126Z" fill="#E1E1E1"/>
<path d="M47.1289 17.1521L47.1289 14.126L44.5351 14.126L44.5351 17.1521L47.1289 17.1521Z" fill="#E1E1E1"/>
</g>
<defs>
<filter id="filter0_d_50_1567" x="-62.2084" y="0.652009" width="117.251" height="27.3325" filterUnits="userSpaceOnUse" color-interpolation-filters="sRGB">
<feFlood flood-opacity="0" result="BackgroundImageFix"/>
<feColorMatrix in="SourceAlpha" type="matrix" values="0 0 0 0 0 0 0 0 0 0 0 0 0 0 0 0 0 0 127 0" result="hardAlpha"/>
<feOffset dx="-1.86144" dy="1.48916"/>
<feGaussianBlur stdDeviation="1.86144"/>
<feComposite in2="hardAlpha" operator="out"/>
<feColorMatrix type="matrix" values="0 0 0 0 0 0 0 0 0 0 0 0 0 0 0 0 0 0 0.25 0"/>
<feBlend mode="normal" in2="BackgroundImageFix" result="effect1_dropShadow_50_1567"/>
<feBlend mode="normal" in="SourceGraphic" in2="effect1_dropShadow_50_1567" result="shape"/>
</filter>
</defs>
</svg>
