<svg width="59" height="59" viewBox="0 0 59 59" fill="none" xmlns="http://www.w3.org/2000/svg">
<circle cx="29.4487" cy="29.4487" r="28.4487" fill="#E81A1A" stroke="white" stroke-width="2"/>
<path d="M45.3617 35.9893L45.5184 35.67L47.2624 32.6441L49.0083 35.664L49.1602 35.9857L49.251 36.29L49.2934 36.6005L49.2881 36.9149L49.233 37.2245L49.1286 37.5244L48.9818 37.8072L48.7966 38.055L48.5661 38.2803L48.3141 38.4614L48.0322 38.601L47.7279 38.6979L47.4177 38.7483H47.1045L46.7943 38.6979L46.49 38.601L46.2082 38.4614L45.9586 38.282L45.7289 38.055L45.5388 37.8042L45.3936 37.5244L45.2892 37.2245L45.2348 36.9191L45.2322 36.6048L45.2758 36.2859L45.3617 35.9893Z" fill="white" stroke="white" stroke-width="2.03746"/>
<mask id="path-3-inside-1_207_59" fill="white">
<rect x="29.335" y="10.3906" width="25.4173" height="27.0982" rx="1.01873" transform="rotate(45 29.335 10.3906)"/>
</mask>
<rect x="29.335" y="10.3906" width="25.4173" height="27.0982" rx="1.01873" transform="rotate(45 29.335 10.3906)" stroke="white" stroke-width="3.56555" mask="url(#path-3-inside-1_207_59)"/>
<path d="M28.026 46.137L12.384 30.495L45.0093 29.3338L28.2061 46.137C28.1563 46.1867 28.0757 46.1867 28.026 46.137Z" fill="white" stroke="white" stroke-width="1.78277"/>
<rect x="34.5986" y="23.3566" width="18.2862" height="1.6809" rx="0.84045" transform="rotate(-135 34.5986 23.3566)" fill="white" stroke="white" stroke-width="0.0509364"/>
<path d="M9 9L49.5 49.5" stroke="white" stroke-width="3"/>
</svg>
