<svg width="17" height="16" viewBox="0 0 17 16" fill="none" xmlns="http://www.w3.org/2000/svg">
<path d="M9.16634 1.99967C9.16634 1.63149 8.86787 1.33301 8.49967 1.33301C8.13147 1.33301 7.83301 1.63149 7.83301 1.99967V7.33301H2.49967C2.13149 7.33301 1.83301 7.63147 1.83301 7.99967C1.83301 8.36787 2.13149 8.66634 2.49967 8.66634H7.83301V13.9997C7.83301 14.3679 8.13147 14.6663 8.49967 14.6663C8.86787 14.6663 9.16634 14.3679 9.16634 13.9997V8.66634H14.4997C14.8679 8.66634 15.1663 8.36787 15.1663 7.99967C15.1663 7.63147 14.8679 7.33301 14.4997 7.33301H9.16634V1.99967Z" fill="#1A73E8"/>
</svg>
