<svg width="800" height="798" viewBox="0 0 800 798" fill="none" xmlns="http://www.w3.org/2000/svg">
<path d="M752.636 216.02C656.73 16.5286 405.936 -56.0137 210.529 45.9377C195.171 54.4336 188.472 73.0594 196.968 90.0513C205.464 105.409 224.09 112.108 241.082 103.612C404.302 18.6526 612.616 79.268 693.164 244.612C800.017 464.037 662.122 631.341 550.367 693.264C398.257 777.733 205.301 721.693 113.152 577.752L226.377 601.442C243.369 604.873 261.995 594.58 265.426 575.954C268.857 558.962 258.564 540.337 239.938 536.906L39.3029 496.06C5.64591 492.792 -1.54297 523.181 0.254246 533.475L25.7421 735.744C27.3759 752.735 41.1002 764.662 58.0921 764.662C79.0052 764.662 92.0759 744.24 90.442 725.614L80.639 643.105C174.421 758.781 358.881 857.464 582.88 754.533C677.806 705.518 895.76 513.215 752.636 216.02Z" fill="#F287B7"/>
</svg>
