<svg width="67" height="58" viewBox="0 0 67 58" fill="none" xmlns="http://www.w3.org/2000/svg">
<path d="M34.7735 14.2033L34.8624 14.2298L34.8662 14.2254C35.2878 14.3018 35.7059 14.0494 35.8298 13.6313C36.9582 9.83961 40.5134 7.19076 44.4743 7.19076C44.9433 7.19076 45.3236 6.81043 45.3236 6.3415C45.3236 5.87256 44.9432 5.49224 44.4743 5.49224C39.6063 5.49224 35.5156 8.73337 34.2021 13.1472C34.0681 13.5969 34.3242 14.0693 34.7735 14.2033Z" fill="#0179DC" stroke="#F9FFF9" stroke-width="0.288949"/>
<path d="M54.34 40.8751H50.1114C49.7222 40.8751 49.4066 40.5595 49.4066 40.1703C49.4066 39.7812 49.7222 39.4655 50.1114 39.4655H54.34C60.1689 39.4655 64.9116 34.7229 64.9116 28.8939C64.9116 23.065 60.1689 18.3223 54.34 18.3223H54.2383C54.0339 18.3223 53.8396 18.2337 53.7057 18.0791C53.5718 17.9246 53.5114 17.7197 53.5406 17.5173C53.6035 17.0784 53.6352 16.6374 53.6352 16.208C53.6352 11.1563 49.5248 7.04584 44.4731 7.04584C42.5077 7.04584 40.6335 7.66 39.0528 8.82236C38.7054 9.07759 38.2121 8.96432 38.0112 8.58223C33.5344 0.0575001 21.8415 -1.08728 15.7792 6.32849C13.2255 9.45264 12.2221 13.5167 13.0261 17.4776C13.1147 17.9151 12.7799 18.3228 12.3354 18.3228H12.053C6.22407 18.3228 1.4814 23.0655 1.4814 28.8945C1.4814 34.7234 6.22407 39.4661 12.053 39.4661H16.2816C16.6708 39.4661 16.9864 39.7817 16.9864 40.1709C16.9864 40.56 16.6708 40.8756 16.2816 40.8756H12.053C5.44671 40.8756 0.0717773 35.5007 0.0717773 28.8944C0.0717773 22.4734 5.14914 17.2157 11.4998 16.9258C10.9032 12.8164 12.044 8.6713 14.6878 5.43645C21.1783 -2.50384 33.6168 -1.61384 38.8748 7.24016C40.5522 6.18853 42.4717 5.63685 44.4728 5.63685C50.5933 5.63685 55.4432 10.8462 55.0188 16.9324C61.3109 17.2853 66.3209 22.5152 66.3209 28.8939C66.3209 35.5007 60.946 40.8751 54.3397 40.8751L54.34 40.8751Z" fill="#0179DC"/>
<path d="M15.3384 39.7729C15.3384 49.5682 23.3073 57.537 33.1025 57.537C42.8978 57.537 50.8666 49.5681 50.8666 39.7729C50.8666 29.9776 42.8978 22.0088 33.1025 22.0088C23.3072 22.0088 15.3384 29.9777 15.3384 39.7729ZM17.0373 39.7729C17.0373 30.9148 24.2443 23.7077 33.1025 23.7077C41.9606 23.7077 49.1677 30.9147 49.1677 39.7729C49.1677 48.631 41.9606 55.8382 33.1025 55.8382C24.2444 55.8382 17.0373 48.6311 17.0373 39.7729Z" fill="#0179DC" stroke="#F9FFF9" stroke-width="0.288949"/>
<path d="M32.7637 46.866C32.7637 47.2307 33.0595 47.5265 33.4242 47.5265C33.7888 47.5265 34.0846 47.2311 34.0846 46.866V33.4505C34.0846 33.0859 33.7889 32.7901 33.4242 32.7901C33.0595 32.7901 32.7637 33.0859 32.7637 33.4505V46.866Z" fill="#0179DC" stroke="#0179DC" stroke-width="0.288949"/>
<path d="M33.4246 34.3856L29.7639 38.0463L33.4246 34.3856ZM33.4246 34.3856L37.0854 38.0464C37.2142 38.1752 37.3837 38.2398 37.5524 38.2398L33.4246 34.3856ZM28.8298 38.0464C29.0877 38.3043 29.5061 38.3045 29.7639 38.0464L32.9575 32.9847L28.8298 37.1124C28.5718 37.3704 28.5718 37.7884 28.8298 38.0464ZM33.8916 32.9846C33.6337 32.7267 33.2153 32.7265 32.9576 32.9846L37.5524 38.2398C37.7208 38.2398 37.8906 38.1757 38.0196 38.0462C38.2774 37.7882 38.2773 37.3703 38.0194 37.1124L33.8916 32.9846Z" fill="#0179DC" stroke="#0179DC" stroke-width="0.288949"/>
</svg>
