<svg width="122" height="123" viewBox="0 0 122 123" fill="none" xmlns="http://www.w3.org/2000/svg">
<g clip-path="url(#clip0_102_962)">
<mask id="mask0_102_962" style="mask-type:luminance" maskUnits="userSpaceOnUse" x="0" y="0" width="122" height="123">
<path d="M121.7 0H0V122.88H121.7V0Z" fill="white"/>
</mask>
<g mask="url(#mask0_102_962)">
<path d="M53.6199 4.6598e-07C63.289 -0.00127395 72.7786 2.61154 81.0843 7.56191C89.3901 12.5123 96.203 19.616 100.802 28.1214C105.401 36.6267 107.615 46.2172 107.21 55.8778C106.805 65.5384 103.795 74.9097 98.4999 83L121.7 108.3L105.7 122.92L83.3199 98.26C76.3527 102.896 68.397 105.837 60.0895 106.848C51.782 107.858 43.3533 106.91 35.4779 104.079C27.6025 101.249 20.4989 96.6137 14.7358 90.5457C8.97265 84.4776 4.70984 77.1447 2.2885 69.1339C-0.132835 61.1232 -0.645476 52.6568 0.791603 44.4124C2.22868 36.168 5.57558 28.3744 10.5644 21.6552C15.5533 14.9361 22.0457 9.47801 29.5221 5.7177C36.9984 1.95738 45.2511 -0.000747742 53.6199 4.6598e-07ZM87.2999 19.94C79.4972 12.1602 69.2384 7.32624 58.2714 6.26174C47.3044 5.19724 36.3076 7.96802 27.1543 14.102C18.001 20.2361 11.2576 29.3539 8.07289 39.9021C4.88812 50.4504 5.45903 61.7765 9.68835 71.9511C13.9176 82.1256 21.5437 90.5191 31.2674 95.7016C40.9911 100.884 52.2108 102.535 63.0152 100.373C73.8196 98.2112 83.5402 92.3702 90.5211 83.8452C97.502 75.3202 101.311 64.6385 101.3 53.62C101.301 47.3605 100.065 41.1624 97.6622 35.3824C95.2596 29.6023 91.7379 24.3542 87.2999 19.94Z" fill="black"/>
<mask id="mask1_102_962" style="mask-type:luminance" maskUnits="userSpaceOnUse" x="30" y="39" width="20" height="29">
<path d="M50 39H30V68H50V39Z" fill="white"/>
</mask>
<g mask="url(#mask1_102_962)">
<path d="M45.3663 61.446H49.5107V68H31.844V61.446H35.9885V49.5367H30.5107V43.35H32.2663C33.2366 43.35 34.0366 43.3017 34.6663 43.205C35.2959 43.1019 35.7959 42.9182 36.1663 42.654C36.5366 42.3833 36.7959 42.016 36.944 41.552C37.0922 41.088 37.1663 40.4919 37.1663 39.7637H45.3663V61.446Z" fill="black"/>
</g>
<path d="M65.5148 47.4828L62.3633 40H52L58.2042 53.801L52 68H61.6718L65.0505 59.9348H65.4555L68.8738 68H79L72.6674 53.5293L78.9901 40H69.1109L65.9693 47.4828H65.5148Z" fill="black"/>
</g>
</g>
<defs>
<clipPath id="clip0_102_962">
<rect width="122" height="123" fill="white"/>
</clipPath>
</defs>
</svg>
